<svg width="35" height="35" viewBox="0 0 35 35" fill="none" xmlns="http://www.w3.org/2000/svg">
<path fill-rule="evenodd" clip-rule="evenodd" d="M6.36364 0C4.6759 0 3.05728 0.670453 1.86387 1.86387C0.670453 3.05728 0 4.6759 0 6.36364V28.6364C0 30.3241 0.670453 31.9427 1.86387 33.1361C3.05728 34.3295 4.6759 35 6.36364 35H28.6364C30.3241 35 31.9427 34.3295 33.1361 33.1361C34.3295 31.9427 35 30.3241 35 28.6364V6.36364C35 4.6759 34.3295 3.05728 33.1361 1.86387C31.9427 0.670453 30.3241 0 28.6364 0H6.36364ZM22.2107 8.39205C22.2752 8.18922 22.2983 7.97552 22.2788 7.76359C22.2592 7.55165 22.1973 7.3458 22.0968 7.15822C21.9962 6.97063 21.859 6.80514 21.6934 6.67152C21.5277 6.5379 21.3369 6.43889 21.1323 6.38033C20.9277 6.32178 20.7134 6.30488 20.5021 6.33063C20.2908 6.35638 20.0869 6.42426 19.9023 6.53026C19.7178 6.63625 19.5563 6.7782 19.4276 6.9477C19.2989 7.1172 19.2055 7.3108 19.153 7.51705L12.7893 26.608C12.7248 26.8108 12.7017 27.0245 12.7212 27.2364C12.7408 27.4483 12.8027 27.6542 12.9032 27.8418C13.0038 28.0294 13.141 28.1949 13.3066 28.3285C13.4723 28.4621 13.6631 28.5611 13.8677 28.6197C14.0723 28.6782 14.2866 28.6951 14.4979 28.6694C14.7092 28.6436 14.9131 28.5757 15.0977 28.4697C15.2822 28.3638 15.4437 28.2218 15.5724 28.0523C15.7011 27.8828 15.7945 27.6892 15.847 27.483L22.2107 8.39205ZM10.6702 13.852C10.96 13.552 11.1204 13.1501 11.1168 12.733C11.1131 12.3159 10.9458 11.9168 10.6508 11.6219C10.3559 11.3269 9.95686 11.1596 9.53973 11.156C9.1226 11.1523 8.72073 11.3127 8.42068 11.6025L3.64795 16.3752C3.34971 16.6736 3.18216 17.0781 3.18216 17.5C3.18216 17.9219 3.34971 18.3264 3.64795 18.6248L8.42068 23.3975C8.72073 23.6873 9.1226 23.8477 9.53973 23.844C9.95686 23.8404 10.3559 23.6731 10.6508 23.3781C10.9458 23.0832 11.1131 22.6841 11.1168 22.267C11.1204 21.8499 10.96 21.448 10.6702 21.148L7.02227 17.5L10.6702 13.852ZM26.5793 11.6025C26.4326 11.4506 26.257 11.3294 26.0629 11.246C25.8688 11.1626 25.6601 11.1187 25.4488 11.1169C25.2376 11.115 25.0281 11.1553 24.8326 11.2353C24.6371 11.3153 24.4594 11.4334 24.3101 11.5828C24.1607 11.7322 24.0425 11.9098 23.9626 12.1053C23.8826 12.3008 23.8423 12.5103 23.8441 12.7215C23.846 12.9328 23.8899 13.1415 23.9732 13.3356C24.0566 13.5297 24.1778 13.7053 24.3298 13.852L27.9777 17.5L24.3298 21.148C24.04 21.448 23.8796 21.8499 23.8832 22.267C23.8869 22.6841 24.0542 23.0832 24.3492 23.3781C24.6441 23.6731 25.0431 23.8404 25.4603 23.844C25.8774 23.8477 26.2793 23.6873 26.5793 23.3975L31.352 18.6248C31.6503 18.3264 31.8178 17.9219 31.8178 17.5C31.8178 17.0781 31.6503 16.6736 31.352 16.3752L26.5793 11.6025Z" fill="#4E2A84"/>
</svg>
