<svg width="43" height="44" viewBox="0 0 43 44" fill="none" xmlns="http://www.w3.org/2000/svg">
<path fill-rule="evenodd" clip-rule="evenodd" d="M18.8997 39.4674L19.3478 38.693C20.0659 37.4516 20.4247 36.831 20.9966 36.4849C21.5685 36.1386 22.3146 36.1142 23.8065 36.0654C25.2054 36.0196 26.1457 35.8948 26.9496 35.5539C28.6422 34.8366 29.9869 33.4606 30.6879 31.7287C31.2138 30.4298 31.2138 28.7831 31.2138 25.4897V24.076C31.2138 19.4485 31.2138 17.1347 30.196 15.4349C29.6264 14.4839 28.8449 13.6842 27.9153 13.1014C26.2543 12.0598 23.9932 12.0598 19.4709 12.0598H15.3262C10.8039 12.0598 8.54273 12.0598 6.88166 13.1014C5.95219 13.6842 5.17074 14.4839 4.60115 15.4349C3.58325 17.1347 3.58325 19.4485 3.58325 24.076V25.4897C3.58325 28.7831 3.58325 30.4298 4.10907 31.7287C4.81015 33.4606 6.15489 34.8366 7.84745 35.5539C8.65136 35.8948 9.59157 36.0196 10.9905 36.0654C12.4824 36.1142 13.2284 36.1386 13.8003 36.4849C14.3722 36.831 14.7312 37.4516 15.4492 38.693L15.8972 39.4674C16.5647 40.6215 18.2323 40.6215 18.8997 39.4674ZM23.4426 26.1964C24.3965 26.1964 25.1696 25.4052 25.1696 24.4293C25.1696 23.4534 24.3965 22.6623 23.4426 22.6623C22.4889 22.6623 21.7158 23.4534 21.7158 24.4293C21.7158 25.4052 22.4889 26.1964 23.4426 26.1964ZM19.1254 24.4293C19.1254 25.4052 18.3523 26.1964 17.3985 26.1964C16.4448 26.1964 15.6716 25.4052 15.6716 24.4293C15.6716 23.4534 16.4448 22.6623 17.3985 22.6623C18.3523 22.6623 19.1254 23.4534 19.1254 24.4293ZM11.3543 26.1964C12.3081 26.1964 13.0813 25.4052 13.0813 24.4293C13.0813 23.4534 12.3081 22.6623 11.3543 22.6623C10.4006 22.6623 9.62742 23.4534 9.62742 24.4293C9.62742 25.4052 10.4006 26.1964 11.3543 26.1964Z" fill="#4E2A84"/>
<path d="M27.1789 3.66675C29.2425 3.66673 30.8834 3.66673 32.1993 3.79475C33.5488 3.92604 34.6897 4.20124 35.706 4.83852C36.7516 5.49421 37.6308 6.3938 38.2715 7.46377C38.8944 8.50374 39.1634 9.67117 39.2916 11.0519C39.4167 12.3985 39.4167 14.0777 39.4167 16.1891V17.6312C39.4167 19.134 39.4167 20.3292 39.352 21.2985C39.2859 22.2899 39.148 23.1415 38.8251 23.9388C38.0364 25.8871 36.5237 27.4352 34.6195 28.2422C34.5719 28.2624 34.524 28.282 34.4758 28.3007C34.246 28.3907 34.0492 28.4677 33.8763 28.5251C33.9014 27.6656 33.9014 26.6866 33.9014 25.5819V23.946C33.9014 21.743 33.9014 19.8976 33.762 18.3974C33.6162 16.8267 33.2987 15.3528 32.4874 13.9982C31.6962 12.6771 30.6108 11.5664 29.3198 10.7568C27.9959 9.92672 26.5556 9.60185 25.0205 9.45253C23.5544 9.30988 21.7509 9.30991 19.598 9.30997H15.1992C13.737 9.30993 12.4361 9.30991 11.2925 9.35457C11.3458 9.16565 11.4188 8.94909 11.5044 8.69492C11.6502 8.26258 11.8343 7.85373 12.0679 7.46377C12.7086 6.3938 13.5878 5.49421 14.6334 4.83852C15.6498 4.20124 16.7907 3.92604 18.1401 3.79475C19.4561 3.66673 21.0969 3.66673 23.1606 3.66675H27.1789Z" fill="#4E2A84"/>
</svg>
