<svg width="44" height="35" viewBox="0 0 44 35" fill="none" xmlns="http://www.w3.org/2000/svg">
<path d="M38.5 0H5.5C4.04131 0 2.64236 0.641298 1.61091 1.78282C0.579458 2.92435 0 4.4726 0 6.08696V28.913C0 30.5274 0.579458 32.0757 1.61091 33.2172C2.64236 34.3587 4.04131 35 5.5 35H38.5C39.9587 35 41.3576 34.3587 42.3891 33.2172C43.4205 32.0757 44 30.5274 44 28.913V6.08696C44 4.4726 43.4205 2.92435 42.3891 1.78282C41.3576 0.641298 39.9587 0 38.5 0ZM37.9912 10.3022L22.8662 23.9978C22.6213 24.2177 22.3154 24.3378 22 24.3378C21.6846 24.3378 21.3787 24.2177 21.1338 23.9978L6.00875 10.3022C5.8484 10.1847 5.71208 10.0314 5.60861 9.85202C5.50513 9.67266 5.43679 9.47129 5.40801 9.26088C5.37923 9.05048 5.39065 8.83573 5.44152 8.63051C5.49238 8.42529 5.58158 8.23417 5.70334 8.06947C5.82509 7.90477 5.97671 7.77018 6.14839 7.67436C6.32008 7.57854 6.50801 7.52366 6.70006 7.51322C6.89211 7.50277 7.084 7.53702 7.26334 7.61376C7.44269 7.69049 7.60549 7.80801 7.74125 7.95871L22 20.863L36.2588 7.95871C36.5428 7.75068 36.8866 7.66674 37.2233 7.72317C37.5601 7.7796 37.866 7.97238 38.0817 8.26415C38.2974 8.55591 38.4076 8.92587 38.3909 9.3024C38.3742 9.67893 38.2317 10.0352 37.9912 10.3022Z" fill="#4E2A84"/>
</svg>
