<svg width="134" height="137" viewBox="0 0 134 137" fill="none" xmlns="http://www.w3.org/2000/svg">
<g clip-path="url(#clip0_83_47)">
<path d="M119.111 0H14.8889C6.62557 0 0 6.86504 0 15.2557V122.045C0 130.436 6.7 137.301 14.8889 137.301H44.6668L61.7143 154.769C64.6179 157.744 69.3079 157.744 72.2111 154.769L89.3332 137.301H119.111C127.3 137.301 134 130.436 134 122.045V15.2557C134 6.86504 127.3 0 119.111 0ZM67 25.1719C78.0921 25.1719 87.1 34.4015 87.1 45.767C87.1 57.1326 78.0921 66.362 67 66.362C55.9079 66.362 46.9 57.1326 46.9 45.767C46.9 34.4015 55.9079 25.1719 67 25.1719ZM111.667 106.79H22.3333V99.9247C22.3333 84.6691 52.1111 76.2784 67 76.2784C81.8889 76.2784 111.667 84.6691 111.667 99.9247V106.79Z" fill="#4E2A84"/>
</g>
<defs>
<clipPath id="clip0_83_47">
<rect width="134" height="137" fill="white"/>
</clipPath>
</defs>
</svg>
